<?xml version="1.0" encoding="utf-8"?>

<!DOCTYPE svg PUBLIC "-//W3C//DTD SVG 1.1//EN" "http://www.w3.org/Graphics/SVG/1.1/DTD/svg11.dtd">
<!-- Uploaded to: SVG Repo, www.svgrepo.com, Generator: SVG Repo Mixer Tools -->
<svg version="1.1" id="_x32_" xmlns="http://www.w3.org/2000/svg" xmlns:xlink="http://www.w3.org/1999/xlink" 
	 width="800px" height="800px" viewBox="0 0 512 512"  xml:space="preserve">
<style type="text/css">
<![CDATA[
	.st0{fill:#000000;}
]]>
</style>
<g>
	<path class="st0" d="M406.219,278.624c-0.172-0.906-0.406-2.109-0.688-3.625l0,0c-2.031-10.906-6.906-36.906-12.094-64.5v-0.031
		c-3.406-18.109-6.953-36.938-9.938-52.625c-1.484-7.844-2.828-14.922-3.953-20.734c-1.125-5.797-2.016-10.344-2.578-13.203
		c-1.219-6-3.734-11.516-7.156-16.313c-5.094-7.219-12.219-12.891-20.344-16.781c-8.109-3.891-17.297-6.031-26.813-6.031
		c-5.797,0-11.719,0.797-17.563,2.5c-5.813,1.719-11.563,4.359-17,7.969c-6.875,4.594-13.219,6.969-18.688,8.25
		c-2.719,0.641-5.25,1-7.484,1.219c-2.25,0.188-4.219,0.219-5.922,0.219c-1.625,0-3.047,0.063-4.406,0.063
		c-1.438,0-2.781-0.063-4.344-0.25c-2.328-0.281-5.125-0.906-8.938-2.344c-3.828-1.453-8.656-3.75-14.813-7.406
		c-11.063-6.563-23.094-9.531-34.563-9.531c-6.313,0-12.469,0.891-18.25,2.594c-8.688,2.563-16.594,6.938-22.875,13
		c-3.156,3.031-5.875,6.5-8.063,10.313c-2.172,3.844-3.797,8.063-4.688,12.531c-0.594,2.859-1.484,7.406-2.594,13.203
		c-3.375,17.422-8.813,46.172-13.906,73.359c-5.188,27.625-10.063,53.625-12.094,64.531l0,0c-0.281,1.516-0.516,2.719-0.688,3.625H0
		l6.188,12.609c0.313,0.609,3.375,6.656,11,15.359c11.453,13.063,33.25,32.063,71.156,47.688
		c10.813,4.469,22.953,8.625,36.516,12.344v4.641l41.547,48.047c0,0,48.031,9.078,51.938,7.781S256,392.03,256,392.03
		s33.75,33.766,37.656,35.063c3.891,1.297,51.938-7.781,51.938-7.781l41.563-48.047v-4.641
		c45.234-12.375,74.453-30.109,92.531-45.344c19-15.984,25.672-29.125,26.109-30.047L512,278.624H406.219z M135.75,213.718
		c3.406-18.125,6.969-36.938,9.938-52.609c1.5-7.844,2.844-14.891,3.953-20.672c1.125-5.781,2-10.313,2.547-13.047v-0.016
		c0.719-3.5,2.141-6.672,4.203-9.578c3.078-4.359,7.641-8.078,13.297-10.703c5.625-2.625,12.281-4.125,19.25-4.125
		c8.469,0,17.359,2.188,25.641,7.094c9.078,5.375,16.234,8.531,22.266,10.313c3.031,0.891,5.75,1.438,8.219,1.75
		s4.688,0.375,6.531,0.375c1.75,0,3.219-0.063,4.406-0.047c2,0,4.547-0.047,7.484-0.328c4.406-0.375,9.734-1.266,15.563-3.156
		c5.859-1.891,12.234-4.781,18.781-9.156c3.922-2.625,8.031-4.5,12.203-5.719c4.188-1.234,8.438-1.813,12.625-1.813
		c4.578,0,9.063,0.688,13.25,1.969c6.281,1.922,11.844,5.156,15.984,9.188c2.078,2.031,3.797,4.219,5.109,6.547
		c1.328,2.328,2.281,4.797,2.813,7.391v0.016c0.547,2.734,1.438,7.266,2.547,13.047c3.344,17.344,8.766,46.094,13.891,73.281l0,0
		c0.688,3.594,1.344,7.156,2,10.672h-244.5C134.406,220.874,135.078,217.312,135.75,213.718z M478.781,298.187
		c-11.047,11.625-31.406,28.125-66.672,41.859c-35.266,13.703-85.469,24.609-156.109,24.609c-49.313,0-88.656-5.313-119.922-13.172
		c-46.891-11.813-75.578-29.344-92.5-43.578c-5.109-4.313-9.125-8.313-12.266-11.781H256h224.688
		C480.094,296.796,479.453,297.483,478.781,298.187z"/>
</g>
</svg>