<?xml version="1.0" encoding="iso-8859-1"?>
<!-- Uploaded to: SVG Repo, www.svgrepo.com, Generator: SVG Repo Mixer Tools -->
<svg fill="#000000" height="800px" width="800px" version="1.1" id="Layer_1" xmlns="http://www.w3.org/2000/svg" xmlns:xlink="http://www.w3.org/1999/xlink" 
	 viewBox="0 0 512 512" xml:space="preserve">
<g>
	<g>
		<path d="M82.237,348.879c-44.817,0-81.278,36.465-81.278,81.288c0,44.815,36.461,81.275,81.278,81.275
			c44.813,0,81.27-36.46,81.27-81.275C163.508,385.344,127.05,348.879,82.237,348.879z M82.237,491.043
			c-33.57,0-60.88-27.309-60.88-60.877c0-33.575,27.31-60.889,60.88-60.889c33.566,0,60.872,27.316,60.872,60.889
			C143.109,463.733,115.802,491.043,82.237,491.043z"/>
	</g>
</g>
<g>
	<g>
		<path d="M19.154,161.633c-9.995,0-18.128,8.132-18.128,18.128v91.197c0.005,9.994,8.137,18.125,18.13,18.125
			c54.297,0,105.363,21.24,143.787,59.8c38.446,38.647,59.619,90.113,59.619,144.917c0,9.995,8.132,18.128,18.127,18.128h91.162
			c9.995,0,18.128-8.132,18.128-18.128C349.981,310.643,201.572,161.633,19.154,161.633z M242.95,491.53
			c-0.578-59.383-23.802-115.073-65.551-157.041c-41.752-41.899-97.063-65.212-155.975-65.794v-86.656
			c169.386,1.217,306.94,139.374,308.152,309.492H242.95z"/>
	</g>
</g>
<g>
	<g>
		<path d="M19.28,0C9.283,0,1.15,8.133,1.153,18.128v91.177c0,9.995,8.132,18.128,18.128,18.128
			c200.913,0,364.368,164.385,364.368,366.439c0,9.995,8.132,18.128,18.128,18.128h91.138c9.994,0,18.127-8.133,18.127-18.128
			C511.041,221.55,290.438,0,19.28,0z M404.038,491.602c-1.212-211.511-172.111-383.342-382.49-384.561V20.404
			c258.105,1.236,467.858,211.938,469.089,471.198H404.038z"/>
	</g>
</g>
<g>
	<g>
		<path d="M428.396,300.95c-1.202-2.53-2.458-5.113-3.733-7.676c-2.51-5.043-8.632-7.099-13.675-4.588
			c-5.042,2.509-7.097,8.632-4.588,13.675c1.221,2.452,2.422,4.922,3.572,7.341c1.746,3.675,5.405,5.825,9.219,5.825
			c1.467,0,2.958-0.318,4.369-0.988C428.648,312.122,430.813,306.038,428.396,300.95z"/>
	</g>
</g>
<g>
	<g>
		<path d="M472.01,466.385c-3.193-44.035-12.604-87.256-27.969-128.464c-1.969-5.277-7.842-7.958-13.12-5.992
			c-5.278,1.969-7.961,7.842-5.993,13.12c14.69,39.39,23.686,80.711,26.738,122.812c0.39,5.367,4.864,9.462,10.161,9.462
			c0.248,0,0.498-0.008,0.749-0.028C468.193,476.887,472.417,472.003,472.01,466.385z"/>
	</g>
</g>
</svg>